<svg id="Layer_1" data-name="Layer 1" xmlns="http://www.w3.org/2000/svg" viewBox="0 0 24 24"><defs><style>.cls-1,.cls-2{fill:none;}.cls-2{stroke:#000;stroke-linecap:round;stroke-linejoin:round;stroke-width:2px;}</style></defs><rect class="cls-1" width="24" height="24"/><path class="cls-2" d="M5,8H19a2,2,0,0,1,2,2v3a0,0,0,0,1,0,0H3a0,0,0,0,1,0,0V10A2,2,0,0,1,5,8Z"/><path class="cls-2" d="M4,13H20a0,0,0,0,1,0,0v5a3,3,0,0,1-3,3H7a3,3,0,0,1-3-3V13A0,0,0,0,1,4,13Z"/><line class="cls-2" x1="12" y1="8" x2="12" y2="21"/><path class="cls-2" d="M12,8s1.1-3.72,3-4.69c2.14-1.08,4.2.85,2.14,2.77A8.18,8.18,0,0,1,12,8Z"/><path class="cls-2" d="M12,8S10.9,4.28,9,3.31c-2.14-1.08-4.2.85-2.14,2.77A8.18,8.18,0,0,0,12,8Z"/></svg>